<svg width="76" height="76" viewBox="0 0 76 76" fill="none" xmlns="http://www.w3.org/2000/svg">
<rect width="76" height="76" rx="38" fill="#8257E5"/>
<path d="M38.5937 51.0625H26.0804C25.9298 51.0645 25.7803 51.0363 25.6407 50.9796C25.5011 50.9228 25.3743 50.8387 25.2678 50.7322C25.1613 50.6256 25.0771 50.4988 25.0204 50.3593C24.9637 50.2197 24.9355 50.0702 24.9375 49.9195V37.4062C24.9375 33.7844 26.3763 30.3109 28.9373 27.7498C31.4983 25.1888 34.9719 23.75 38.5937 23.75C40.3871 23.75 42.1629 24.1032 43.8197 24.7895C45.4766 25.4758 46.9821 26.4817 48.2502 27.7498C49.5183 29.0179 50.5242 30.5234 51.2105 32.1802C51.8967 33.8371 52.25 35.6129 52.25 37.4062C52.25 39.1996 51.8967 40.9754 51.2105 42.6323C50.5242 44.2891 49.5183 45.7946 48.2502 47.0627C46.9821 48.3308 45.4766 49.3367 43.8197 50.023C42.1629 50.7093 40.3871 51.0625 38.5937 51.0625Z" stroke="white" stroke-width="1.5" stroke-linecap="round" stroke-linejoin="round"/>
<path d="M40.3281 38C40.3281 38.9579 39.5516 39.7344 38.5938 39.7344C37.6359 39.7344 36.8594 38.9579 36.8594 38C36.8594 37.0421 37.6359 36.2656 38.5938 36.2656C39.5516 36.2656 40.3281 37.0421 40.3281 38Z" fill="white" stroke="white" stroke-width="0.09375"/>
<path d="M33.2031 38C33.2031 38.9579 32.4266 39.7344 31.4688 39.7344C30.5109 39.7344 29.7344 38.9579 29.7344 38C29.7344 37.0421 30.5109 36.2656 31.4688 36.2656C32.4266 36.2656 33.2031 37.0421 33.2031 38Z" fill="white" stroke="white" stroke-width="0.09375"/>
<path d="M47.4531 38C47.4531 38.9579 46.6766 39.7344 45.7188 39.7344C44.7609 39.7344 43.9844 38.9579 43.9844 38C43.9844 37.0421 44.7609 36.2656 45.7188 36.2656C46.6766 36.2656 47.4531 37.0421 47.4531 38Z" fill="white" stroke="white" stroke-width="0.09375"/>
</svg>
